<svg xmlns="http://www.w3.org/2000/svg" width="1200" height="750" viewBox="0 0 1200 750">
  <defs>
    <linearGradient id="g" x1="0" x2="1">
      <stop offset="0" stop-color="#2B2B2B"/>
      <stop offset="1" stop-color="#171717"/>
    </linearGradient>
    <linearGradient id="gold" x1="0" x2="1">
      <stop offset="0" stop-color="#E3C46A"/>
      <stop offset="1" stop-color="#CBA135"/>
    </linearGradient>
    <filter id="s" x="-20%" y="-20%" width="140%" height="140%">
      <feDropShadow dx="0" dy="18" stdDeviation="18" flood-color="#000" flood-opacity=".25"/>
    </filter>
  </defs>
  <rect width="1200" height="750" rx="36" fill="url(#g)"/>
  <g filter="url(#s)">
    <rect x="170" y="95" width="860" height="560" rx="22" fill="#FAFAFA"/>
    <rect x="210" y="140" width="300" height="22" rx="11" fill="#2B2B2B" opacity=".92"/>
    <rect x="210" y="175" width="220" height="12" rx="6" fill="#2B2B2B" opacity=".35"/>
    <rect x="210" y="210" width="780" height="6" rx="3" fill="url(#gold)"/>
    <rect x="210" y="250" width="360" height="14" rx="7" fill="#2B2B2B" opacity=".18"/>
    <rect x="210" y="276" width="520" height="10" rx="5" fill="#2B2B2B" opacity=".14"/>
    <rect x="210" y="296" width="480" height="10" rx="5" fill="#2B2B2B" opacity=".14"/>
    <rect x="210" y="340" width="260" height="14" rx="7" fill="#2B2B2B" opacity=".18"/>
    <rect x="210" y="368" width="740" height="10" rx="5" fill="#2B2B2B" opacity=".14"/>
    <rect x="210" y="388" width="700" height="10" rx="5" fill="#2B2B2B" opacity=".14"/>
    <rect x="210" y="428" width="300" height="14" rx="7" fill="#2B2B2B" opacity=".18"/>
    <rect x="210" y="456" width="620" height="10" rx="5" fill="#2B2B2B" opacity=".14"/>
    <rect x="210" y="476" width="640" height="10" rx="5" fill="#2B2B2B" opacity=".14"/>
    <rect x="210" y="520" width="780" height="6" rx="3" fill="#2B2B2B" opacity=".08"/>
    <circle cx="920" cy="160" r="34" fill="url(#gold)" opacity=".92"/>
  </g>
</svg>