<svg xmlns="http://www.w3.org/2000/svg" width="1200" height="750" viewBox="0 0 1200 750">
  <defs>
    <linearGradient id="bg" x1="0" x2="1">
      <stop offset="0" stop-color="#2B2B2B"/>
      <stop offset="1" stop-color="#121214"/>
    </linearGradient>
    <linearGradient id="gold" x1="0" x2="1">
      <stop offset="0" stop-color="#E3C46A"/>
      <stop offset="1" stop-color="#CBA135"/>
    </linearGradient>
    <filter id="s" x="-20%" y="-20%" width="140%" height="140%">
      <feDropShadow dx="0" dy="18" stdDeviation="18" flood-color="#000" flood-opacity=".28"/>
    </filter>
  </defs>
  <rect width="1200" height="750" rx="36" fill="url(#bg)"/>
  <g filter="url(#s)">
    <rect x="140" y="110" width="920" height="530" rx="24" fill="rgba(250,250,250,.92)"/>
    <rect x="180" y="155" width="240" height="18" rx="9" fill="#2B2B2B" opacity=".85"/>
    <rect x="180" y="185" width="160" height="10" rx="5" fill="#2B2B2B" opacity=".25"/>
    <rect x="180" y="225" width="860" height="6" rx="3" fill="url(#gold)"/>
    <rect x="180" y="260" width="300" height="180" rx="20" fill="#2B2B2B" opacity=".08"/>
    <rect x="500" y="260" width="260" height="180" rx="20" fill="#2B2B2B" opacity=".08"/>
    <rect x="780" y="260" width="260" height="180" rx="20" fill="#2B2B2B" opacity=".08"/>
    <rect x="180" y="470" width="520" height="140" rx="20" fill="#2B2B2B" opacity=".08"/>
    <rect x="720" y="470" width="320" height="140" rx="20" fill="#2B2B2B" opacity=".08"/>
    <rect x="205" y="500" width="170" height="14" rx="7" fill="#2B2B2B" opacity=".18"/>
    <rect x="205" y="526" width="250" height="10" rx="5" fill="#2B2B2B" opacity=".12"/>
    <rect x="745" y="500" width="180" height="14" rx="7" fill="#2B2B2B" opacity=".18"/>
    <rect x="745" y="526" width="220" height="10" rx="5" fill="#2B2B2B" opacity=".12"/>
    <circle cx="1000" cy="175" r="22" fill="url(#gold)" opacity=".92"/>
  </g>
</svg>