<svg xmlns="http://www.w3.org/2000/svg" width="1200" height="750" viewBox="0 0 1200 750">
  <defs>
    <linearGradient id="bg" x1="0" x2="1">
      <stop offset="0" stop-color="#111114"/>
      <stop offset="1" stop-color="#1a1a1e"/>
    </linearGradient>
    <linearGradient id="gold" x1="0" x2="1">
      <stop offset="0" stop-color="#E3C46A"/>
      <stop offset="1" stop-color="#CBA135"/>
    </linearGradient>
    <filter id="s" x="-20%" y="-20%" width="140%" height="140%">
      <feDropShadow dx="0" dy="18" stdDeviation="18" flood-color="#000" flood-opacity=".3"/>
    </filter>
  </defs>
  <rect width="1200" height="750" rx="36" fill="url(#bg)"/>
  <g filter="url(#s)">
    <rect x="120" y="115" width="960" height="520" rx="22" fill="#FAFAFA"/>
    <rect x="120" y="115" width="960" height="60" rx="22" fill="#2B2B2B"/>
    <circle cx="170" cy="145" r="7" fill="#ffffff" opacity=".35"/>
    <circle cx="195" cy="145" r="7" fill="#ffffff" opacity=".35"/>
    <circle cx="220" cy="145" r="7" fill="#ffffff" opacity=".35"/>
    <rect x="260" y="135" width="180" height="18" rx="9" fill="#ffffff" opacity=".18"/>
    <rect x="160" y="215" width="520" height="22" rx="11" fill="#2B2B2B" opacity=".92"/>
    <rect x="160" y="250" width="420" height="12" rx="6" fill="#2B2B2B" opacity=".28"/>
    <rect x="160" y="290" width="180" height="42" rx="14" fill="url(#gold)"/>
    <rect x="360" y="290" width="160" height="42" rx="14" fill="#2B2B2B" opacity=".10"/>
    <rect x="160" y="360" width="880" height="6" rx="3" fill="#2B2B2B" opacity=".08"/>
    <rect x="160" y="395" width="260" height="140" rx="18" fill="#2B2B2B" opacity=".08"/>
    <rect x="450" y="395" width="260" height="140" rx="18" fill="#2B2B2B" opacity=".08"/>
    <rect x="740" y="395" width="300" height="140" rx="18" fill="#2B2B2B" opacity=".08"/>
  </g>
</svg>